# xmcd
#
# Track frame offsets:
#	150
#	3162
#	12772
#	19207
#	26557
#	33397
#	46570
#	61500
#	72280
#	73572
#	86277
#	101015
#	109502
#	116677
#	124605
#	137190
#	146895
#
# Disc length: 1984 seconds
#
# Revision: 1
# Processed by: cddbd v1.5.1PL0 Copyright (c) Steve Scherf et al.
# Submitted via: CDex 1.50Beta5
#
DISCID=d407be11
DTITLE=さまざまなアーティスト - たのしいどうよう
DYEAR=1900
DGENRE=
TTITLE0=オープニング
TTITLE1=やまのおんがく
TTITLE2=メリーさんのひつじ
TTITLE3=ねこふんじゃった
TTITLE4=かえるのがっしょう
TTITLE5=ふしぎなポケット
TTITLE6=とっでったバナナ
TTITLE7=ちいさなせかい
TTITLE8=そろそろダンスタイム
TTITLE9=ビビディ・バビディ・ブー
TTITLE10=もりのくまさん
TTITLE11=おおきなくりのきのしたで
TTITLE12=しあわせならておたたこう
TTITLE13=ドレミのうた
TTITLE14=おもちゃのチャチャチャ
TTITLE15=ミッキーマウス・マーチ
TTITLE16=エンディング
EXTD=
EXTT0=
EXTT1=
EXTT2=
EXTT3=
EXTT4=
EXTT5=
EXTT6=
EXTT7=
EXTT8=
EXTT9=
EXTT10=
EXTT11=
EXTT12=
EXTT13=
EXTT14=
EXTT15=
EXTT16=
PLAYORDER=
